<?xml version="1.0" encoding="utf-8"?>
<!-- Generator: Adobe Illustrator 16.0.0, SVG Export Plug-In . SVG Version: 6.00 Build 0)  -->
<!DOCTYPE svg PUBLIC "-//W3C//DTD SVG 1.1//EN" "http://www.w3.org/Graphics/SVG/1.1/DTD/svg11.dtd">
<svg version="1.1" id="Calque_1" xmlns="http://www.w3.org/2000/svg" xmlns:xlink="http://www.w3.org/1999/xlink" x="0px" y="0px"
	 width="419.427px" height="52.004px" viewBox="0 0 419.427 52.004" enable-background="new 0 0 419.427 52.004"
	 xml:space="preserve">
<path fill-rule="evenodd" clip-rule="evenodd" fill="#FFFFFF" d="M405.059,20.179c1.355,0.724,3.214,8.634,2.731,11.693
	c-0.886,5.609-3.624,13.929-11.096,10.84c-6.683-2.763-3.447-11.421-0.427-15.534c1.249-1.701,2.985-3.283,4.694-4.523
	C402.328,21.829,403.693,21.004,405.059,20.179z"/>
<path fill-rule="evenodd" clip-rule="evenodd" fill="#AE1E49" d="M404.803,21.032c-1.167,0.683-2.333,1.366-3.5,2.049
	c-3.172,2.234-5.817,5.261-7.341,9.133c-1.772,4.506-0.561,8.608,3.158,10.071c8.365,3.291,11.637-9.397,9.56-16.388
	C406.252,24.454,405.899,21.829,404.803,21.032z"/>
<path fill-rule="evenodd" clip-rule="evenodd" fill="#FFFFFF" d="M404.376,22.142c1.009,0.621,1.333,3.012,1.707,4.268
	c1.939,6.506-0.927,18.315-8.706,15.278c-3.242-1.266-4.554-5.113-2.987-9.133c1.307-3.354,3.581-6.253,6.316-8.193
	C401.93,23.621,403.153,22.881,404.376,22.142z"/>
<path fill-rule="evenodd" clip-rule="evenodd" fill="#AE1E49" d="M404.035,23.593c-2.635,5.106-5.09,10.253-6.146,17.156
	c0.057-0.028,0.113-0.058,0.17-0.086c0.654-1.337,1.309-2.675,1.963-4.012c1.193-2.708,2.119-5.383,2.987-8.449
	C403.337,27.047,404.305,24.761,404.035,23.593z"/>
<path fill-rule="evenodd" clip-rule="evenodd" fill="#AE1E49" d="M402.499,23.849c-0.626,0.626-1.252,1.252-1.877,1.878
	c-2.805,3.605-3.855,7.738-3.841,14.083c0.057-0.028,0.114-0.057,0.171-0.085c0.094-4.614,2.343-8.65,3.841-12.035
	C401.089,27.017,402.587,23.984,402.499,23.849z"/>
<path fill-rule="evenodd" clip-rule="evenodd" fill="#AE1E49" d="M404.889,24.702c-0.888,3.188-1.244,6.475-2.39,9.389
	c-0.918,2.336-2.34,4.435-3.244,6.658c3.767-2.844,4.873-7.071,5.804-12.889C405.194,27.017,405.216,25.439,404.889,24.702z"/>
<g>
	<path fill="#235666" d="M0,12.904h2.131v34.37h19.977v1.934H0V12.904z"/>
	<path fill="#235666" d="M47.844,44.369c-0.033,0.794,0.047,1.507,0.241,2.136c0.161,0.679,0.636,1.018,1.424,1.018
		c0.337,0,0.804-0.05,1.4-0.149v1.637c-0.526,0.132-1.036,0.198-1.53,0.198c-1.434,0-2.342-0.388-2.724-1.167
		c-0.462-0.678-0.677-1.563-0.646-2.656v-1.365h-0.095c-0.597,1.556-1.7,2.896-3.312,4.021c-1.66,1.159-3.707,1.753-6.141,1.787
		c-2.449,0-4.464-0.563-6.043-1.688c-1.612-1.093-2.434-2.988-2.466-5.686c0-1.54,0.29-2.813,0.87-3.824
		c0.564-0.943,1.313-1.688,2.248-2.234c0.95-0.579,1.974-0.985,3.07-1.217c0.548-0.132,1.087-0.256,1.62-0.372
		c0.531-0.066,1.047-0.1,1.547-0.1c4.044-0.231,6.566-0.686,7.565-1.363c0.564-0.413,0.911-0.934,1.039-1.562
		c0.097-0.611,0.146-1.445,0.146-2.503c0-0.33-0.081-0.785-0.241-1.363c-0.193-0.545-0.556-1.107-1.087-1.685
		c-0.499-0.562-1.208-1.066-2.125-1.512c-0.935-0.38-2.142-0.57-3.623-0.57c-4.749,0.033-7.349,2.354-7.8,6.964h-1.833
		c0.352-5.767,3.563-8.651,9.632-8.651c2.306-0.033,4.34,0.423,6.101,1.369c1.809,0.995,2.73,2.812,2.762,5.448V44.369z
		 M46.011,34.362c-0.371,0.413-0.879,0.719-1.525,0.917c-0.629,0.231-1.379,0.396-2.251,0.495c-1.743,0.215-3.559,0.422-5.447,0.62
		c-4.632,0.298-6.964,2.319-6.996,6.061c0,1.624,0.581,2.957,1.743,4c1.097,1.093,2.752,1.656,4.963,1.689
		c2.179,0,3.898-0.422,5.157-1.267c1.291-0.745,2.251-1.648,2.881-2.708c0.613-1.043,1.024-2.045,1.234-3.006
		c0.162-0.943,0.242-1.582,0.242-1.913V34.362z"/>
	<path fill="#235666" d="M86.642,49.208h-2.308L74.14,23.061h2.164l9.16,23.916h0.096l8.559-23.916h2.068L86.642,49.208z"/>
	<path fill="#235666" d="M104.135,18.116v-5.212h1.833v5.212H104.135z M104.135,49.208V23.061h1.833v26.148H104.135z"/>
	<path fill="#235666" d="M117.064,36.393c-0.033,3.147,0.744,5.863,2.333,8.148c1.539,2.369,3.864,3.569,6.974,3.602
		c4.97-0.066,7.992-2.658,9.066-7.775h1.876c-1.122,6.225-4.766,9.378-10.933,9.462c-3.701-0.083-6.487-1.391-8.361-3.924
		c-1.893-2.516-2.821-5.62-2.788-9.312c-0.083-3.758,0.814-7.027,2.69-9.808c1.874-2.814,4.693-4.254,8.456-4.321
		c3.972,0.067,6.878,1.44,8.72,4.122c1.817,2.632,2.618,5.901,2.402,9.807H117.064z M135.668,34.709
		c-0.064-2.842-0.883-5.295-2.458-7.361c-1.606-2.048-3.88-3.114-6.82-3.197c-2.828,0.083-5.028,1.189-6.603,3.321
		s-2.482,4.543-2.723,7.237H135.668z"/>
	<path fill="#235666" d="M165.829,36.393c-0.033,3.147,0.744,5.863,2.333,8.148c1.539,2.369,3.864,3.569,6.974,3.602
		c4.97-0.066,7.992-2.658,9.066-7.775h1.876c-1.122,6.225-4.766,9.378-10.933,9.462c-3.701-0.083-6.487-1.391-8.361-3.924
		c-1.892-2.516-2.821-5.62-2.788-9.312c-0.083-3.758,0.814-7.027,2.69-9.808c1.874-2.814,4.693-4.254,8.456-4.321
		c3.973,0.067,6.879,1.44,8.721,4.122c1.817,2.632,2.618,5.901,2.403,9.807H165.829z M184.433,34.709
		c-0.064-2.842-0.883-5.295-2.458-7.361c-1.607-2.048-3.88-3.114-6.82-3.197c-2.828,0.083-5.028,1.189-6.603,3.321
		c-1.575,2.132-2.482,4.543-2.724,7.237H184.433z"/>
	<path fill="#235666" d="M195.654,23.061h1.835V28.7h0.119c0.688-2.012,1.867-3.566,3.534-4.664
		c1.667-1.048,3.502-1.572,5.506-1.572c2.245,0.034,3.983,0.422,5.217,1.167c1.25,0.778,2.14,1.747,2.669,2.905
		c0.561,1.143,0.905,2.293,1.034,3.452c0.064,1.192,0.096,2.209,0.096,3.054v16.166h-1.833V32.685c0-0.71-0.032-1.554-0.096-2.53
		c-0.129-0.943-0.427-1.877-0.892-2.804c-0.418-0.942-1.125-1.704-2.122-2.282c-1.013-0.579-2.378-0.885-4.098-0.918
		c-2.829,0.033-5.047,1.05-6.654,3.051c-1.655,2.001-2.482,4.631-2.482,7.89v14.117h-1.833V23.061z"/>
</g>
<g>
	<path fill="#235666" d="M256.014,50.824h-4.386L232.257,1.135h4.112l17.405,45.447h0.183l16.265-45.447h3.93L256.014,50.824z"/>
	<path fill="#235666" d="M291.936,12.183h0.319c1.034-3.367,3.27-6.137,6.706-8.309c3.376-2.14,7.268-3.147,11.677-3.022v3.677
		c-1.916-0.315-4.03-0.158-6.341,0.472c-2.371,0.724-4.683,2.17-6.933,4.342c-1.733,1.762-3.011,3.665-3.832,5.71
		c-0.852,2.076-1.384,4.955-1.597,8.636v27.136h-3.483V1.135h3.483V12.183z"/>
	<path fill="#235666" d="M358.512,41.627c-0.063,1.51,0.09,2.863,0.459,4.058c0.305,1.291,1.208,1.935,2.705,1.935
		c0.642,0,1.529-0.094,2.661-0.283v3.11c-1,0.252-1.969,0.377-2.907,0.377c-2.725,0-4.451-0.738-5.177-2.217
		c-0.879-1.289-1.288-2.97-1.228-5.046v-2.594h-0.181c-1.134,2.957-3.231,5.504-6.293,7.642c-3.154,2.201-7.043,3.333-11.668,3.396
		c-4.656,0-8.483-1.07-11.483-3.208c-3.063-2.076-4.625-5.676-4.687-10.803c0-2.925,0.551-5.348,1.654-7.267
		c1.071-1.793,2.495-3.208,4.271-4.247c1.806-1.1,3.751-1.871,5.833-2.312c1.041-0.251,2.066-0.486,3.078-0.708
		c1.009-0.125,1.99-0.189,2.939-0.189c7.686-0.439,12.479-1.302,14.377-2.59c1.071-0.784,1.73-1.773,1.975-2.968
		c0.184-1.161,0.276-2.746,0.276-4.756c0-0.629-0.153-1.492-0.459-2.591c-0.367-1.036-1.056-2.104-2.065-3.203
		c-0.949-1.067-2.295-2.025-4.039-2.873c-1.775-0.722-4.069-1.083-6.883-1.083c-9.026,0.063-13.966,4.475-14.823,13.234h-3.483
		c0.67-10.959,6.771-16.438,18.304-16.438c4.381-0.063,8.246,0.805,11.593,2.6c3.438,1.892,5.188,5.343,5.249,10.354V41.627z
		 M355.03,22.612c-0.706,0.784-1.672,1.365-2.899,1.741c-1.196,0.439-2.622,0.752-4.278,0.94c-3.312,0.409-6.763,0.8-10.351,1.177
		c-8.802,0.566-13.234,4.406-13.295,11.518c0,3.085,1.104,5.618,3.312,7.601c2.085,2.077,5.229,3.147,9.431,3.21
		c4.14,0,7.406-0.802,9.799-2.408c2.454-1.416,4.278-3.131,5.475-5.145c1.165-1.983,1.947-3.886,2.346-5.712
		c0.307-1.793,0.46-3.005,0.46-3.635V22.612z"/>
	<path fill="#235666" d="M415.463,16.562c-0.366-4.436-2.044-7.786-5.035-10.051c-3.02-2.202-6.772-3.304-11.257-3.304
		c-6.011,0.158-10.572,2.452-13.684,6.883c-3.266,4.37-4.896,9.509-4.896,15.418c0,6.758,1.571,12.306,4.716,16.644
		c3.053,4.37,7.678,6.585,13.876,6.648c4.549-0.063,8.334-1.509,11.356-4.338c2.992-2.765,4.793-6.474,5.405-11.127h3.482
		c-0.792,5.941-3.029,10.514-6.711,13.719c-3.743,3.238-8.263,4.887-13.558,4.95c-7.73-0.157-13.346-2.862-16.846-8.116
		c-3.47-5.159-5.204-11.293-5.204-18.403c0-7.141,1.886-13.118,5.659-17.931c3.803-4.908,9.263-7.424,16.382-7.55
		c5.354,0,9.843,1.324,13.463,3.971c3.681,2.711,5.795,6.903,6.344,12.576L415.463,16.562z"/>
</g>
</svg>
